Sen-Bold.ufo
<glyph name="exclam" format="1">
  <advance width="340"/>
  <unicode hex="0021"/>
  <outline>
    <contour>
      <point x="241" y="670" type="line"/>
      <point x="99" y="670" type="line"/>
      <point x="99" y="240" type="line"/>
      <point x="241" y="240" type="line"/>
    </contour>
    <component base="period" xOffset="44"/>
  </outline>
</glyph>
<glyph name="percent" format="1">
  <advance width="824"/>
  <unicode hex="0025"/>
  <outline>
    <contour>
      <point x="561" y="720" type="line"/>
      <point x="153" y="37" type="line"/>
      <point x="263" y="-20" type="line"/>
      <point x="674" y="663" type="line"/>
    </contour>
    <contour>
      <point x="192" y="685" type="curve" smooth="yes"/>
      <point x="101" y="685"/>
      <point x="40" y="616"/>
      <point x="40" y="532" type="curve" smooth="yes"/>
      <point x="40" y="447"/>
      <point x="101" y="379"/>
      <point x="192" y="379" type="curve" smooth="yes"/>
      <point x="282" y="379"/>
      <point x="344" y="447"/>
      <point x="344" y="532" type="curve" smooth="yes"/>
      <point x="344" y="616"/>
      <point x="282" y="685"/>
    </contour>
    <contour>
      <point x="193" y="578" type="curve" smooth="yes"/>
      <point x="218" y="578"/>
      <point x="238" y="557"/>
      <point x="238" y="532" type="curve" smooth="yes"/>
      <point x="238" y="506"/>
      <point x="218" y="485"/>
      <point x="193" y="485" type="curve" smooth="yes"/>
      <point x="167" y="485"/>
      <point x="147" y="506"/>
      <point x="147" y="532" type="curve" smooth="yes"/>
      <point x="147" y="557"/>
      <point x="167" y="578"/>
    </contour>
    <contour>
      <point x="632" y="291" type="curve" smooth="yes"/>
      <point x="541" y="291"/>
      <point x="480" y="222"/>
      <point x="480" y="138" type="curve" smooth="yes"/>
      <point x="480" y="53"/>
      <point x="541" y="-15"/>
      <point x="632" y="-15" type="curve" smooth="yes"/>
      <point x="722" y="-15"/>
      <point x="784" y="53"/>
      <point x="784" y="138" type="curve" smooth="yes"/>
      <point x="784" y="222"/>
      <point x="722" y="291"/>
    </contour>
    <contour>
      <point x="633" y="184" type="curve" smooth="yes"/>
      <point x="658" y="184"/>
      <point x="678" y="163"/>
      <point x="678" y="138" type="curve" smooth="yes"/>
      <point x="678" y="112"/>
      <point x="658" y="91"/>
      <point x="633" y="91" type="curve" smooth="yes"/>
      <point x="607" y="91"/>
      <point x="587" y="112"/>
      <point x="587" y="138" type="curve" smooth="yes"/>
      <point x="587" y="163"/>
      <point x="607" y="184"/>
    </contour>
  </outline>
</glyph>
<glyph name="plus" format="1">
  <advance width="550"/>
  <unicode hex="002B"/>
  <outline>
    <contour>
      <point x="350" y="508" type="line"/>
      <point x="200" y="508" type="line"/>
      <point x="200" y="117" type="line"/>
      <point x="350" y="117" type="line"/>
    </contour>
    <contour>
      <point x="470" y="388" type="line"/>
      <point x="80" y="388" type="line"/>
      <point x="80" y="238" type="line"/>
      <point x="470" y="238" type="line"/>
    </contour>
  </outline>
</glyph>
<glyph name="comma" format="1">
  <advance width="284"/>
  <unicode hex="002C"/>
  <outline>
    <contour>
      <point x="106" y="112" type="line"/>
      <point x="16" y="-137" type="line"/>
      <point x="138" y="-153" type="line"/>
      <point x="248" y="84" type="line"/>
    </contour>
  </outline>
</glyph>
<glyph name="equal" format="1">
  <advance width="551"/>
  <unicode hex="003D"/>
  <outline>
    <contour>
      <point x="471" y="493" type="line"/>
      <point x="80" y="493" type="line"/>
      <point x="80" y="343" type="line"/>
      <point x="471" y="343" type="line"/>
    </contour>
    <contour>
      <point x="471" y="278" type="line"/>
      <point x="80" y="278" type="line"/>
      <point x="80" y="128" type="line"/>
      <point x="471" y="128" type="line"/>
    </contour>
  </outline>
</glyph>
<glyph name="G" format="1">
  <advance width="695"/>
  <unicode hex="0047"/>
  <outline>
    <contour>
      <point x="395" y="685" type="curve" smooth="yes"/>
      <point x="213" y="685"/>
      <point x="40" y="557"/>
      <point x="40" y="335" type="curve" smooth="yes"/>
      <point x="40" y="113"/>
      <point x="213" y="-15"/>
      <point x="395" y="-15" type="curve" smooth="yes"/>
      <point x="495" y="-15"/>
      <point x="577" y="24"/>
      <point x="640" y="89" type="curve"/>
      <point x="502" y="193" type="line"/>
      <point x="486" y="175"/>
      <point x="449" y="160"/>
      <point x="402" y="160" type="curve" smooth="yes"/>
      <point x="312" y="160"/>
      <point x="232" y="235"/>
      <point x="232" y="335" type="curve" smooth="yes"/>
      <point x="232" y="435"/>
      <point x="312" y="510"/>
      <point x="402" y="510" type="curve" smooth="yes"/>
      <point x="479" y="510"/>
      <point x="519" y="488"/>
      <point x="572" y="445" type="curve"/>
      <point x="572" y="626" type="line"/>
      <point x="527" y="665"/>
      <point x="465" y="685"/>
    </contour>
    <contour>
      <point x="640" y="359" type="line"/>
      <point x="480" y="359" type="line"/>
      <point x="478" y="29" type="line"/>
      <point x="640" y="89" type="line"/>
    </contour>
    <contour>
      <point x="480" y="359" type="line"/>
      <point x="480" y="239" type="line"/>
      <point x="580" y="239" type="line"/>
      <point x="580" y="359" type="line"/>
    </contour>
    <contour>
      <point x="423" y="0" type="move" name="bottom"/>
    </contour>
    <contour>
      <point x="363" y="670" type="move" name="top"/>
    </contour>
  </outline>
</glyph>
<glyph name="I" format="1">
  <advance width="573"/>
  <unicode hex="0049"/>
  <outline>
    <contour>
      <point x="380" y="670" type="line"/>
      <point x="193" y="670" type="line"/>
      <point x="193" y="0" type="line"/>
      <point x="380" y="0" type="line"/>
    </contour>
    <contour>
      <point x="503" y="155" type="line"/>
      <point x="70" y="155" type="line"/>
      <point x="70" y="0" type="line"/>
      <point x="503" y="0" type="line"/>
    </contour>
    <contour>
      <point x="503" y="670" type="line"/>
      <point x="70" y="670" type="line"/>
      <point x="70" y="515" type="line"/>
      <point x="503" y="515" type="line"/>
    </contour>
    <contour>
      <point x="369" y="10" type="move" name="ogonek"/>
    </contour>
    <contour>
      <point x="287" y="670" type="move" name="top"/>
    </contour>
  </outline>
</glyph>
<glyph name="V" format="1">
  <advance width="734"/>
  <unicode hex="0056"/>
  <outline>
    <contour>
      <point x="719" y="670" type="line"/>
      <point x="501" y="670" type="line"/>
      <point x="367" y="302" type="line"/>
      <point x="233" y="670" type="line"/>
      <point x="15" y="670" type="line"/>
      <point x="320" y="-5" type="line"/>
      <point x="414" y="-5" type="line"/>
    </contour>
  </outline>
</glyph>
<glyph name="W" format="1">
  <advance width="984"/>
  <unicode hex="0057"/>
  <outline>
    <contour>
      <point x="969" y="670" type="line"/>
      <point x="751" y="670" type="line"/>
      <point x="662" y="322" type="line"/>
      <point x="556" y="670" type="line"/>
      <point x="428" y="670" type="line"/>
      <point x="324" y="322" type="line"/>
      <point x="233" y="670" type="line"/>
      <point x="15" y="670" type="line"/>
      <point x="235" y="0" type="line"/>
      <point x="376" y="0" type="line"/>
      <point x="493" y="355" type="line"/>
      <point x="610" y="0" type="line"/>
      <point x="751" y="0" type="line"/>
    </contour>
    <contour>
      <point x="492" y="670" type="move" name="top"/>
    </contour>
  </outline>
</glyph>
<glyph name="Z" format="1">
  <advance width="699"/>
  <unicode hex="005A"/>
  <outline>
    <contour>
      <point x="639" y="670" type="line"/>
      <point x="72" y="670" type="line"/>
      <point x="72" y="505" type="line"/>
      <point x="334" y="505" type="line"/>
      <point x="50" y="36" type="line"/>
      <point x="50" y="0" type="line"/>
      <point x="639" y="0" type="line"/>
      <point x="639" y="165" type="line"/>
      <point x="354" y="165" type="line"/>
      <point x="639" y="634" type="line"/>
    </contour>
    <contour>
      <point x="351" y="670" type="move" name="top"/>
    </contour>
  </outline>
</glyph>
<glyph name="c" format="1">
  <advance width="472"/>
  <unicode hex="0063"/>
  <outline>
    <contour>
      <point x="304" y="525" type="curve" smooth="yes"/>
      <point x="152" y="525"/>
      <point x="35" y="394"/>
      <point x="35" y="252" type="curve" smooth="yes"/>
      <point x="35" y="110"/>
      <point x="152" y="-15"/>
      <point x="304" y="-15" type="curve" smooth="yes"/>
      <point x="382" y="-15"/>
      <point x="417" y="10"/>
      <point x="452" y="37" type="curve"/>
      <point x="452" y="187" type="line"/>
      <point x="421" y="165"/>
      <point x="384" y="150"/>
      <point x="327" y="150" type="curve" smooth="yes"/>
      <point x="270" y="150"/>
      <point x="220" y="185"/>
      <point x="220" y="252" type="curve" smooth="yes"/>
      <point x="220" y="319"/>
      <point x="280" y="355"/>
      <point x="327" y="355" type="curve" smooth="yes"/>
      <point x="384" y="355"/>
      <point x="421" y="340"/>
      <point x="452" y="318" type="curve"/>
      <point x="452" y="468" type="line"/>
      <point x="417" y="495"/>
      <point x="382" y="525"/>
    </contour>
    <contour>
      <point x="312" y="0" type="move" name="bottom"/>
    </contour>
    <contour>
      <point x="300" y="510" type="move" name="top"/>
    </contour>
  </outline>
</glyph>
<glyph name="i" format="1">
  <advance width="371"/>
  <unicode hex="0069"/>
  <outline>
    <contour>
      <point x="203" y="796" type="curve" smooth="yes"/>
      <point x="145" y="796"/>
      <point x="96" y="750"/>
      <point x="96" y="692" type="curve" smooth="yes"/>
      <point x="96" y="635"/>
      <point x="145" y="588"/>
      <point x="203" y="588" type="curve" smooth="yes"/>
      <point x="260" y="588"/>
      <point x="311" y="635"/>
      <point x="311" y="692" type="curve" smooth="yes"/>
      <point x="311" y="750"/>
      <point x="260" y="796"/>
    </contour>
    <component base="dotlessi" xOffset="-5"/>
    <contour>
      <point x="295" y="0" type="move" name="ogonek"/>
    </contour>
    <contour>
      <point x="182" y="510" type="move" name="top"/>
    </contour>
  </outline>
</glyph>
<glyph name="j" format="1">
  <advance width="382"/>
  <unicode hex="006A"/>
  <outline>
    <contour>
      <point x="295" y="510" type="line"/>
      <point x="123" y="510" type="line"/>
      <point x="123" y="11" type="line" smooth="yes"/>
      <point x="123" y="-48"/>
      <point x="83" y="-85"/>
      <point x="31" y="-108" type="curve"/>
      <point x="106" y="-255" type="line"/>
      <point x="231" y="-215"/>
      <point x="295" y="-130"/>
      <point x="295" y="9" type="curve" smooth="yes"/>
    </contour>
    <contour>
      <point x="274" y="510" type="line"/>
      <point x="40" y="510" type="line"/>
      <point x="40" y="370" type="line"/>
      <point x="274" y="370" type="line"/>
    </contour>
    <contour>
      <point x="204" y="796" type="curve" smooth="yes"/>
      <point x="146" y="796"/>
      <point x="96" y="750"/>
      <point x="96" y="692" type="curve" smooth="yes"/>
      <point x="96" y="635"/>
      <point x="146" y="588"/>
      <point x="204" y="588" type="curve" smooth="yes"/>
      <point x="261" y="588"/>
      <point x="312" y="635"/>
      <point x="312" y="692" type="curve" smooth="yes"/>
      <point x="312" y="750"/>
      <point x="261" y="796"/>
    </contour>
  </outline>
</glyph>
<glyph name="l" format="1">
  <advance width="312"/>
  <unicode hex="006C"/>
  <outline>
    <contour>
      <point x="242" y="720" type="line"/>
      <point x="70" y="720" type="line"/>
      <point x="70" y="0" type="line"/>
      <point x="242" y="0" type="line"/>
    </contour>
    <contour>
      <point x="156" y="0" type="move" name="bottom"/>
    </contour>
    <contour>
      <point x="207" y="720" type="move" name="top"/>
    </contour>
    <contour>
      <point x="272" y="510" type="move" name="topright"/>
    </contour>
  </outline>
</glyph>
<glyph name="n" format="1">
  <advance width="628"/>
  <unicode hex="006E"/>
  <outline>
    <contour>
      <point x="386" y="525" type="curve" smooth="yes"/>
      <point x="318" y="525"/>
      <point x="274" y="488"/>
      <point x="242" y="444" type="curve"/>
      <point x="242" y="308" type="line"/>
      <point x="260" y="335"/>
      <point x="285" y="357"/>
      <point x="322" y="357" type="curve" smooth="yes"/>
      <point x="357" y="357"/>
      <point x="390" y="339"/>
      <point x="390" y="288" type="curve" smooth="yes"/>
      <point x="391" y="0" type="line"/>
      <point x="563" y="0" type="line"/>
      <point x="563" y="315" type="line" smooth="yes"/>
      <point x="563" y="453"/>
      <point x="490" y="525"/>
    </contour>
    <contour>
      <point x="242" y="510" type="line"/>
      <point x="70" y="510" type="line"/>
      <point x="70" y="0" type="line"/>
      <point x="242" y="0" type="line"/>
    </contour>
    <contour>
      <point x="323" y="0" type="move" name="bottom"/>
    </contour>
    <contour>
      <point x="333" y="513" type="move" name="top"/>
    </contour>
  </outline>
</glyph>
<glyph name="r" format="1">
  <advance width="438"/>
  <unicode hex="0072"/>
  <outline>
    <contour>
      <point x="242" y="510" type="line"/>
      <point x="70" y="510" type="line"/>
      <point x="70" y="0" type="line"/>
      <point x="242" y="0" type="line"/>
    </contour>
    <contour>
      <point x="418" y="321" type="curve"/>
      <point x="418" y="511" type="line"/>
      <point x="405" y="517"/>
      <point x="390" y="520"/>
      <point x="373" y="520" type="curve" smooth="yes"/>
      <point x="309" y="520"/>
      <point x="274" y="473"/>
      <point x="242" y="419" type="curve"/>
      <point x="242" y="262" type="line"/>
      <point x="265" y="307"/>
      <point x="301" y="338"/>
      <point x="348" y="338" type="curve" smooth="yes"/>
      <point x="377" y="338"/>
      <point x="398" y="332"/>
    </contour>
    <contour>
      <point x="226" y="0" type="move" name="bottom"/>
    </contour>
    <contour>
      <point x="246" y="510" type="move" name="top"/>
    </contour>
  </outline>
</glyph>
<glyph name="t" format="1">
  <advance width="481"/>
  <unicode hex="0074"/>
  <outline>
    <contour>
      <point x="284" y="640" type="line"/>
      <point x="172" y="640" type="line"/>
      <point x="142" y="553"/>
      <point x="105" y="497"/>
      <point x="40" y="480" type="curve"/>
      <point x="40" y="375" type="line"/>
      <point x="112" y="375" type="line"/>
      <point x="112" y="169" type="line" smooth="yes"/>
      <point x="112" y="53"/>
      <point x="199" y="-15"/>
      <point x="294" y="-15" type="curve" smooth="yes"/>
      <point x="360" y="-15"/>
      <point x="414" y="11"/>
      <point x="436" y="40" type="curve"/>
      <point x="436" y="184" type="line"/>
      <point x="411" y="169"/>
      <point x="388" y="152"/>
      <point x="348" y="152" type="curve" smooth="yes"/>
      <point x="301" y="152"/>
      <point x="284" y="183"/>
      <point x="284" y="232" type="curve" smooth="yes"/>
      <point x="284" y="375" type="line"/>
      <point x="428" y="375" type="line"/>
      <point x="428" y="510" type="line"/>
      <point x="284" y="510" type="line"/>
    </contour>
    <contour>
      <point x="296" y="0" type="move" name="bottom"/>
    </contour>
    <contour>
      <point x="230" y="255" type="move" name="center"/>
    </contour>
    <contour>
      <point x="434" y="510" type="move" name="topright"/>
    </contour>
  </outline>
</glyph>
<glyph name="u" format="1">
  <advance width="618"/>
  <unicode hex="0075"/>
  <outline>
    <contour>
      <point x="553" y="510" type="line"/>
      <point x="381" y="510" type="line"/>
      <point x="380" y="250" type="line" smooth="yes"/>
      <point x="380" y="180"/>
      <point x="360" y="150"/>
      <point x="309" y="150" type="curve" smooth="yes"/>
      <point x="258" y="150"/>
      <point x="238" y="180"/>
      <point x="238" y="250" type="curve" smooth="yes"/>
      <point x="237" y="510" type="line"/>
      <point x="65" y="510" type="line"/>
      <point x="65" y="204" type="line" smooth="yes"/>
      <point x="65" y="66"/>
      <point x="167" y="-15"/>
      <point x="309" y="-15" type="curve" smooth="yes"/>
      <point x="451" y="-15"/>
      <point x="553" y="66"/>
      <point x="553" y="204" type="curve" smooth="yes"/>
    </contour>
    <contour>
      <point x="411" y="10" type="move" name="ogonek"/>
    </contour>
    <contour>
      <point x="317" y="510" type="move" name="top"/>
    </contour>
  </outline>
</glyph>
<glyph name="y" format="1">
  <advance width="622"/>
  <unicode hex="0079"/>
  <outline>
    <contour>
      <point x="617" y="510" type="line"/>
      <point x="425" y="510" type="line"/>
      <point x="280" y="150" type="line"/>
      <point x="59" y="-240" type="line"/>
      <point x="251" y="-240" type="line"/>
    </contour>
    <contour>
      <point x="203" y="510" type="line"/>
      <point x="5" y="510" type="line"/>
      <point x="250" y="-20" type="line"/>
      <point x="369" y="110" type="line"/>
    </contour>
    <contour>
      <point x="306" y="510" type="move" name="top"/>
    </contour>
  </outline>
</glyph>
<glyph name="currency" format="1">
  <advance width="526"/>
  <unicode hex="00A4"/>
  <outline>
    <contour>
      <point x="263" y="441" type="curve" smooth="yes"/>
      <point x="166" y="441"/>
      <point x="72" y="364"/>
      <point x="72" y="257" type="curve" smooth="yes"/>
      <point x="72" y="150"/>
      <point x="166" y="73"/>
      <point x="263" y="73" type="curve" smooth="yes"/>
      <point x="360" y="73"/>
      <point x="454" y="150"/>
      <point x="454" y="257" type="curve" smooth="yes"/>
      <point x="454" y="364"/>
      <point x="360" y="441"/>
    </contour>
    <contour>
      <point x="263" y="319" type="curve" smooth="yes"/>
      <point x="298" y="319"/>
      <point x="328" y="296"/>
      <point x="328" y="257" type="curve" smooth="yes"/>
      <point x="328" y="218"/>
      <point x="298" y="195"/>
      <point x="263" y="195" type="curve" smooth="yes"/>
      <point x="228" y="195"/>
      <point x="198" y="218"/>
      <point x="198" y="257" type="curve" smooth="yes"/>
      <point x="198" y="296"/>
      <point x="228" y="319"/>
    </contour>
    <contour>
      <point x="388" y="215" type="line"/>
      <point x="298" y="139" type="line"/>
      <point x="408" y="29" type="line"/>
      <point x="491" y="108" type="line"/>
    </contour>
    <contour>
      <point x="156" y="282" type="line"/>
      <point x="242" y="361" type="line"/>
      <point x="118" y="485" type="line"/>
      <point x="35" y="407" type="line"/>
    </contour>
    <contour>
      <point x="309" y="385" type="line"/>
      <point x="390" y="301" type="line"/>
      <point x="491" y="406" type="line"/>
      <point x="409" y="485" type="line"/>
    </contour>
    <contour>
      <point x="235" y="146" type="line"/>
      <point x="157" y="233" type="line"/>
      <point x="35" y="108" type="line"/>
      <point x="118" y="29" type="line"/>
    </contour>
  </outline>
</glyph>
<glyph name="logicalnot" format="1">
  <advance width="600"/>
  <unicode hex="00AC"/>
  <outline>
    <contour>
      <point x="451" y="388" type="line"/>
      <point x="80" y="388" type="line"/>
      <point x="80" y="238" type="line"/>
      <point x="451" y="238" type="line"/>
    </contour>
    <contour>
      <point x="451" y="388" type="line"/>
      <point x="309" y="388" type="line"/>
      <point x="309" y="133" type="line"/>
      <point x="451" y="133" type="line"/>
    </contour>
  </outline>
</glyph>
<glyph name="registered" format="1">
  <advance width="864"/>
  <unicode hex="00AE"/>
  <outline>
    <contour>
      <point x="432" y="723" type="curve" smooth="yes"/>
      <point x="208" y="723"/>
      <point x="40" y="548"/>
      <point x="40" y="335" type="curve" smooth="yes"/>
      <point x="40" y="122"/>
      <point x="208" y="-53"/>
      <point x="432" y="-53" type="curve" smooth="yes"/>
      <point x="656" y="-53"/>
      <point x="824" y="122"/>
      <point x="824" y="335" type="curve" smooth="yes"/>
      <point x="824" y="548"/>
      <point x="656" y="723"/>
    </contour>
    <contour>
      <point x="432" y="620" type="curve" smooth="yes"/>
      <point x="600" y="620"/>
      <point x="713" y="503"/>
      <point x="713" y="335" type="curve" smooth="yes"/>
      <point x="713" y="167"/>
      <point x="600" y="50"/>
      <point x="432" y="50" type="curve" smooth="yes"/>
      <point x="264" y="50"/>
      <point x="151" y="167"/>
      <point x="151" y="335" type="curve" smooth="yes"/>
      <point x="151" y="503"/>
      <point x="264" y="620"/>
    </contour>
    <component base="R" xScale="0.593" yScale="0.593" xOffset="243" yOffset="136"/>
  </outline>
</glyph>
<glyph name="uni00B2" format="1">
  <advance width="282"/>
  <unicode hex="00B2"/>
  <outline>
    <contour>
      <point x="134.497" y="676.786" type="curve" smooth="yes"/>
      <point x="100.792" y="676.786"/>
      <point x="64.87" y="664.368"/>
      <point x="44.913" y="647.516" type="curve"/>
      <point x="44.913" y="563.254" type="line"/>
      <point x="61.766" y="583.211"/>
      <point x="91.036" y="599.176"/>
      <point x="115.871" y="599.176" type="curve" smooth="yes"/>
      <point x="139.375" y="599.176"/>
      <point x="154.897" y="583.654"/>
      <point x="154.897" y="561.48" type="curve" smooth="yes"/>
      <point x="154.897" y="529.106"/>
      <point x="120.306" y="489.636"/>
      <point x="40.479" y="406.705" type="curve"/>
      <point x="40.479" y="373" type="line"/>
      <point x="242.263" y="373" type="line"/>
      <point x="242.263" y="439.522" type="line"/>
      <point x="159.776" y="439.522" type="line"/>
      <point x="212.107" y="500.28"/>
      <point x="240.046" y="524.671"/>
      <point x="240.046" y="584.098" type="curve" smooth="yes"/>
      <point x="240.046" y="638.203"/>
      <point x="197.472" y="676.786"/>
    </contour>
  </outline>
</glyph>
<glyph name="uni00B5" format="1">
  <advance width="618"/>
  <unicode hex="00B5"/>
  <outline>
    <contour>
      <point x="553" y="510" type="line"/>
      <point x="381" y="510" type="line"/>
      <point x="380" y="250" type="line" smooth="yes"/>
      <point x="380" y="180"/>
      <point x="360" y="150"/>
      <point x="309" y="150" type="curve" smooth="yes"/>
      <point x="258" y="150"/>
      <point x="238" y="180"/>
      <point x="238" y="250" type="curve" smooth="yes"/>
      <point x="237" y="510" type="line"/>
      <point x="65" y="510" type="line"/>
      <point x="65" y="249" type="line"/>
      <point x="236" y="60" type="line"/>
      <point x="236" y="2"/>
      <point x="267" y="-15"/>
      <point x="309" y="-15" type="curve" smooth="yes"/>
      <point x="350" y="-15"/>
      <point x="382" y="2"/>
      <point x="382" y="60" type="curve"/>
      <point x="553" y="258" type="line"/>
    </contour>
    <contour>
      <point x="237" y="146" type="line"/>
      <point x="65" y="290" type="line"/>
      <point x="65" y="-240" type="line"/>
      <point x="237" y="-240" type="line"/>
    </contour>
    <contour>
      <point x="553" y="397" type="line"/>
      <point x="381" y="143" type="line"/>
      <point x="381" y="0" type="line"/>
      <point x="553" y="0" type="line"/>
    </contour>
  </outline>
</glyph>
<glyph name="uni00B9" format="1">
  <advance width="285"/>
  <unicode hex="00B9"/>
  <outline>
    <contour>
      <point x="185.643" y="670" type="line"/>
      <point x="123.14" y="670" type="line"/>
      <point x="102.306" y="643.403"/>
      <point x="67.73" y="625.672"/>
      <point x="42.463" y="616.806" type="curve"/>
      <point x="42.463" y="534.799" type="line"/>
      <point x="61.081" y="540.118"/>
      <point x="85.461" y="549.427"/>
      <point x="102.749" y="563.612" type="curve"/>
      <point x="102.749" y="373" type="line"/>
      <point x="185.643" y="373" type="line"/>
    </contour>
    <contour>
      <point x="245.487" y="446.142" type="line"/>
      <point x="40.246" y="446.142" type="line"/>
      <point x="40.246" y="373" type="line"/>
      <point x="245.487" y="373" type="line"/>
    </contour>
  </outline>
</glyph>
<glyph name="ordmasculine" format="1">
  <advance width="394"/>
  <unicode hex="00BA"/>
  <outline>
    <contour>
      <point x="197" y="677" type="curve" smooth="yes"/>
      <point x="115" y="677"/>
      <point x="35" y="612"/>
      <point x="35" y="521" type="curve" smooth="yes"/>
      <point x="35" y="430"/>
      <point x="115" y="364"/>
      <point x="197" y="364" type="curve" smooth="yes"/>
      <point x="279" y="364"/>
      <point x="359" y="430"/>
      <point x="359" y="521" type="curve" smooth="yes"/>
      <point x="359" y="612"/>
      <point x="279" y="677"/>
    </contour>
    <contour>
      <point x="197" y="581" type="curve" smooth="yes"/>
      <point x="219" y="581"/>
      <point x="252" y="571"/>
      <point x="252" y="521" type="curve" smooth="yes"/>
      <point x="252" y="470"/>
      <point x="219" y="460"/>
      <point x="197" y="460" type="curve" smooth="yes"/>
      <point x="176" y="460"/>
      <point x="142" y="470"/>
      <point x="142" y="521" type="curve" smooth="yes"/>
      <point x="142" y="571"/>
      <point x="176" y="581"/>
    </contour>
    <contour>
      <point x="197" y="668" type="move" name="top"/>
    </contour>
  </outline>
</glyph>
<glyph name="guillemotright" format="1">
  <advance width="555"/>
  <unicode hex="00BB"/>
  <outline>
    <contour>
      <point x="290" y="468" type="line"/>
      <point x="290" y="315" type="line"/>
      <point x="370" y="252" type="line"/>
      <point x="290" y="185" type="line"/>
      <point x="290" y="32" type="line"/>
      <point x="525" y="235" type="line"/>
      <point x="525" y="273" type="line"/>
    </contour>
    <contour>
      <point x="60" y="468" type="line"/>
      <point x="60" y="315" type="line"/>
      <point x="140" y="252" type="line"/>
      <point x="60" y="185" type="line"/>
      <point x="60" y="32" type="line"/>
      <point x="295" y="235" type="line"/>
      <point x="295" y="273" type="line"/>
    </contour>
  </outline>
</glyph>
<glyph name="Thorn" format="1">
  <advance width="684"/>
  <unicode hex="00DE"/>
  <outline>
    <contour>
      <point x="247" y="670" type="line"/>
      <point x="90" y="670" type="line"/>
      <point x="90" y="0" type="line"/>
      <point x="247" y="0" type="line"/>
      <point x="247" y="123" type="line"/>
      <point x="293" y="110"/>
      <point x="338" y="99"/>
      <point x="397" y="99" type="curve" smooth="yes"/>
      <point x="539" y="99"/>
      <point x="654" y="192"/>
      <point x="654" y="333" type="curve" smooth="yes"/>
      <point x="654" y="463"/>
      <point x="543" y="561"/>
      <point x="428" y="561" type="curve" smooth="yes"/>
      <point x="247" y="561" type="line"/>
    </contour>
    <contour>
      <point x="373" y="411" type="line" smooth="yes"/>
      <point x="437" y="411"/>
      <point x="492" y="386"/>
      <point x="492" y="333" type="curve" smooth="yes"/>
      <point x="492" y="273"/>
      <point x="452" y="244"/>
      <point x="383" y="244" type="curve" smooth="yes"/>
      <point x="347" y="244"/>
      <point x="286" y="254"/>
      <point x="247" y="274" type="curve"/>
      <point x="247" y="411" type="line"/>
    </contour>
  </outline>
</glyph>
<glyph name="germandbls" format="1">
  <advance width="733"/>
  <unicode hex="00DF"/>
  <outline>
    <contour>
      <point x="289" y="725" type="curve" smooth="yes"/>
      <point x="164" y="725"/>
      <point x="40" y="647"/>
      <point x="40" y="514" type="curve" smooth="yes"/>
      <point x="40" y="0" type="line"/>
      <point x="212" y="0" type="line"/>
      <point x="212" y="485" type="line" smooth="yes"/>
      <point x="212" y="555"/>
      <point x="241" y="586"/>
      <point x="292" y="587" type="curve" smooth="yes"/>
      <point x="340" y="588"/>
      <point x="374" y="554"/>
      <point x="374" y="496" type="curve" smooth="yes"/>
      <point x="374" y="443"/>
      <point x="317" y="416"/>
      <point x="317" y="342" type="curve" smooth="yes"/>
      <point x="317" y="259"/>
      <point x="371" y="236"/>
      <point x="419" y="221" type="curve" smooth="yes"/>
      <point x="484" y="201" type="line" smooth="yes"/>
      <point x="522" y="189"/>
      <point x="561" y="176"/>
      <point x="561" y="151" type="curve" smooth="yes"/>
      <point x="561" y="128"/>
      <point x="535" y="122"/>
      <point x="500" y="122" type="curve" smooth="yes"/>
      <point x="433" y="122"/>
      <point x="358" y="146"/>
      <point x="310" y="166" type="curve"/>
      <point x="310" y="33" type="line"/>
      <point x="355" y="9"/>
      <point x="426" y="-15"/>
      <point x="502" y="-15" type="curve" smooth="yes"/>
      <point x="610" y="-15"/>
      <point x="713" y="54"/>
      <point x="713" y="154" type="curve" smooth="yes"/>
      <point x="713" y="227"/>
      <point x="664" y="270"/>
      <point x="591" y="300" type="curve" smooth="yes"/>
      <point x="540" y="321" type="line" smooth="yes"/>
      <point x="501" y="337"/>
      <point x="473" y="340"/>
      <point x="473" y="366" type="curve" smooth="yes"/>
      <point x="473" y="405"/>
      <point x="557" y="428"/>
      <point x="557" y="502" type="curve" smooth="yes"/>
      <point x="557" y="635"/>
      <point x="421" y="725"/>
    </contour>
  </outline>
</glyph>
<glyph name="oslash" format="1">
  <advance width="600"/>
  <unicode hex="00F8"/>
  <outline>
    <contour>
      <point x="503" y="528" type="line"/>
      <point x="47" y="35" type="line"/>
      <point x="116" y="-25" type="line"/>
      <point x="575" y="468" type="line"/>
    </contour>
    <component base="o"/>
  </outline>
</glyph>
<glyph name="dcaron" format="1">
  <advance width="762"/>
  <unicode hex="010F"/>
  <outline>
    <contour>
      <point x="615" y="718" type="line"/>
      <point x="605" y="530" type="line"/>
      <point x="727" y="530" type="line"/>
      <point x="757" y="718" type="line"/>
    </contour>
    <component base="d"/>
  </outline>
</glyph>
<glyph name="Eng" format="1">
  <advance width="782"/>
  <unicode hex="014A"/>
  <outline>
    <contour>
      <point x="571" y="51" type="line"/>
      <point x="634" y="224" type="line"/>
      <point x="156" y="680" type="line"/>
      <point x="90" y="680" type="line"/>
      <point x="90" y="0" type="line"/>
      <point x="277" y="0" type="line"/>
      <point x="277" y="329" type="line"/>
    </contour>
    <component base="J" xOffset="398"/>
    <contour>
      <point x="396" y="0" type="move" name="bottom"/>
    </contour>
    <contour>
      <point x="396" y="670" type="move" name="top"/>
    </contour>
  </outline>
</glyph>
<glyph name="tbar" format="1">
  <advance width="448"/>
  <unicode hex="0167"/>
  <outline>
    <contour>
      <point x="406" y="319" type="line"/>
      <point x="24" y="319" type="line"/>
      <point x="24" y="229" type="line"/>
      <point x="406" y="229" type="line"/>
    </contour>
    <component base="t"/>
  </outline>
</glyph>
<glyph name="hungarumlaut" format="1">
  <advance width="548"/>
  <unicode hex="02DD"/>
  <outline>
    <component base="acute" xOffset="194"/>
    <component base="acute" xOffset="-10"/>
    <contour>
      <point x="259" y="510" type="move" name="_top"/>
    </contour>
  </outline>
</glyph>
<glyph name="quoteright" format="1">
  <advance width="292"/>
  <unicode hex="2019"/>
  <outline>
    <contour>
      <point x="120" y="688" type="line"/>
      <point x="30" y="439" type="line"/>
      <point x="152" y="423" type="line"/>
      <point x="262" y="660" type="line"/>
    </contour>
  </outline>
</glyph>
<glyph name="daggerdbl" format="1">
  <advance width="600"/>
  <unicode hex="2021"/>
  <outline>
    <contour>
      <point x="310" y="670" type="line"/>
      <point x="153" y="670" type="line"/>
      <point x="153" y="-100" type="line"/>
      <point x="310" y="-100" type="line"/>
    </contour>
    <contour>
      <point x="423" y="520" type="line"/>
      <point x="40" y="520" type="line"/>
      <point x="40" y="380" type="line"/>
      <point x="423" y="380" type="line"/>
    </contour>
    <contour>
      <point x="423" y="245" type="line"/>
      <point x="40" y="245" type="line"/>
      <point x="40" y="105" type="line"/>
      <point x="423" y="105" type="line"/>
    </contour>
  </outline>
</glyph>
<glyph name="fraction" format="1">
  <advance width="82"/>
  <unicode hex="2044"/>
  <outline>
    <contour>
      <point x="332" y="670" type="line"/>
      <point x="211" y="670" type="line"/>
      <point x="-250" y="0" type="line"/>
      <point x="-132" y="0" type="line"/>
    </contour>
  </outline>
</glyph>
<glyph name="uni2074" format="1">
  <advance width="283"/>
  <unicode hex="2074"/>
  <outline>
    <contour>
      <point x="208.681" y="670.011" type="line"/>
      <point x="146.176" y="670.011" type="line"/>
      <point x="104.062" y="600.413"/>
      <point x="66.825" y="548.99"/>
      <point x="20.278" y="496.237" type="curve"/>
      <point x="20.278" y="438.608" type="line"/>
      <point x="134.65" y="438.608" type="line"/>
      <point x="134.65" y="373" type="line"/>
      <point x="208.681" y="373" type="line"/>
      <point x="208.681" y="438.608" type="line"/>
      <point x="242.815" y="438.608" type="line"/>
      <point x="242.815" y="505.103" type="line"/>
      <point x="208.681" y="505.103" type="line"/>
    </contour>
    <contour>
      <point x="134.65" y="544.114" type="curve"/>
      <point x="134.65" y="505.103" type="line"/>
      <point x="107.165" y="505.103" type="line"/>
      <point x="118.248" y="519.289"/>
      <point x="122.681" y="527.268"/>
    </contour>
  </outline>
</glyph>
<glyph name="Euro" format="1">
  <advance width="627"/>
  <unicode hex="20AC"/>
  <outline>
    <contour>
      <point x="448" y="685" type="curve" smooth="yes"/>
      <point x="286" y="685"/>
      <point x="113" y="557"/>
      <point x="113" y="335" type="curve" smooth="yes"/>
      <point x="113" y="113"/>
      <point x="286" y="-15"/>
      <point x="448" y="-15" type="curve" smooth="yes"/>
      <point x="491" y="-15"/>
      <point x="552" y="3"/>
      <point x="587" y="28" type="curve"/>
      <point x="587" y="205" type="line"/>
      <point x="556" y="178"/>
      <point x="522" y="160"/>
      <point x="475" y="160" type="curve" smooth="yes"/>
      <point x="385" y="160"/>
      <point x="305" y="235"/>
      <point x="305" y="335" type="curve" smooth="yes"/>
      <point x="305" y="435"/>
      <point x="385" y="510"/>
      <point x="475" y="510" type="curve" smooth="yes"/>
      <point x="522" y="510"/>
      <point x="556" y="492"/>
      <point x="587" y="465" type="curve"/>
      <point x="587" y="642" type="line"/>
      <point x="562" y="667"/>
      <point x="491" y="685"/>
    </contour>
    <contour>
      <point x="490" y="440" type="line"/>
      <point x="40" y="440" type="line"/>
      <point x="40" y="350" type="line"/>
      <point x="490" y="350" type="line"/>
    </contour>
    <contour>
      <point x="490" y="315" type="line"/>
      <point x="40" y="315" type="line"/>
      <point x="40" y="225" type="line"/>
      <point x="490" y="225" type="line"/>
    </contour>
  </outline>
</glyph>
<glyph name="uni2215" format="1">
  <advance width="662"/>
  <unicode hex="2215"/>
  <outline>
    <contour>
      <point x="622" y="670" type="line"/>
      <point x="501" y="670" type="line"/>
      <point x="40" y="0" type="line"/>
      <point x="158" y="0" type="line"/>
    </contour>
  </outline>
</glyph>
